<?xml version="1.0" encoding="UTF-8" standalone="no"?>
<!-- Created with Inkscape (http://www.inkscape.org/) -->

<svg
   xmlns:dc="http://purl.org/dc/elements/1.1/"
   xmlns:cc="http://creativecommons.org/ns#"
   xmlns:rdf="http://www.w3.org/1999/02/22-rdf-syntax-ns#"
   xmlns:svg="http://www.w3.org/2000/svg"
   xmlns="http://www.w3.org/2000/svg"
   xmlns:sodipodi="http://sodipodi.sourceforge.net/DTD/sodipodi-0.dtd"
   xmlns:inkscape="http://www.inkscape.org/namespaces/inkscape"
   width="512"
   height="512"
   viewBox="0 0 135.46666 135.46667"
   version="1.1"
   id="svg8"
   inkscape:version="0.92.2 5c3e80d, 2017-08-06"
   sodipodi:docname="robot-icon.svg"
   inkscape:export-filename="/Users/tillmannradmer/Repos/radmerti.github.io/_docs/robot-icon-003.png"
   inkscape:export-xdpi="96"
   inkscape:export-ydpi="96">
  <defs
     id="defs2" />
  <sodipodi:namedview
     id="base"
     pagecolor="#ffffff"
     bordercolor="#666666"
     borderopacity="1.0"
     inkscape:pageopacity="0.0"
     inkscape:pageshadow="2"
     inkscape:zoom="1.1503906"
     inkscape:cx="263.28947"
     inkscape:cy="256"
     inkscape:document-units="mm"
     inkscape:current-layer="g1330"
     showgrid="false"
     units="px"
     inkscape:window-width="1280"
     inkscape:window-height="755"
     inkscape:window-x="0"
     inkscape:window-y="1"
     inkscape:window-maximized="1" />
  <metadata
     id="metadata5">
    <rdf:RDF>
      <cc:Work
         rdf:about="">
        <dc:format>image/svg+xml</dc:format>
        <dc:type
           rdf:resource="http://purl.org/dc/dcmitype/StillImage" />
        <dc:title />
      </cc:Work>
    </rdf:RDF>
  </metadata>
  <g
     inkscape:label="Layer 1"
     inkscape:groupmode="layer"
     id="layer1"
     transform="translate(0,-161.53332)">
    <circle
       style="fill:#ff3636;fill-opacity:1;stroke:none;stroke-width:8.55266953;stroke-miterlimit:4;stroke-dasharray:none;stroke-opacity:1"
       id="path5430"
       cx="-72.424324"
       cy="410.42282"
       r="67.73333" />
    <path
       id="path8"
       d="m 78.50051,70.33969 c -6.307137,0 -11.438466,5.13132 -11.438466,11.43846 0,6.30714 5.131329,11.43847 11.438466,11.43847 6.307138,0 11.438467,-5.13133 11.438467,-11.43847 0,-6.30714 -5.131065,-11.43846 -11.438467,-11.43846 z m 0,20.23109 c -4.848224,0 -8.792633,-3.9444 -8.792633,-8.79263 0,-4.84822 3.944409,-8.79263 8.792633,-8.79263 4.848225,0 8.792634,3.94441 8.792634,8.79263 0,4.84823 -3.944144,8.79263 -8.792634,8.79263 z"
       inkscape:connector-curvature="0"
       style="stroke-width:0.26458332" />
    <path
       id="path10"
       d="m 78.50051,75.2784 c -3.583781,0 -6.499489,2.91571 -6.499489,6.49949 0,3.58378 2.915708,6.49949 6.499489,6.49949 C 82.084292,88.27738 85,85.36167 85,81.77789 85,78.19411 82.084556,75.2784 78.50051,75.2784 Z m 0,10.35341 c -2.124868,0 -3.853656,-1.72879 -3.853656,-3.85366 0,-2.12487 1.728788,-3.85365 3.853656,-3.85365 2.124869,0 3.853657,1.72878 3.853657,3.85365 0,2.12487 -1.728523,3.85366 -3.853657,3.85366 z"
       inkscape:connector-curvature="0"
       style="stroke-width:0.26458332" />
    <path
       id="path12"
       d="m 78.50104,80.45444 c -0.34925,0 -0.690563,0.14288 -0.936625,0.38894 -0.246063,0.24606 -0.386292,0.58737 -0.386292,0.93398 0,0.34925 0.140229,0.69056 0.386292,0.93662 0.246062,0.24607 0.587375,0.38629 0.936625,0.38629 0.346604,0 0.687916,-0.14022 0.933979,-0.38629 0.246062,-0.24606 0.388937,-0.58737 0.388937,-0.93662 0,-0.34925 -0.142875,-0.68792 -0.388937,-0.93398 -0.246063,-0.24606 -0.584729,-0.38894 -0.933979,-0.38894 z"
       inkscape:connector-curvature="0"
       style="stroke-width:0.26458332" />
    <g
       transform="matrix(0.26458333,0,0,0.26458333,-123.0498,154.63131)"
       id="g18">
      <path
         inkscape:connector-curvature="0"
         d="m 218.433,165.504 c 3.78,-3.78 5.862,-8.806 5.862,-14.151 0,-5.346 -2.082,-10.372 -5.861,-14.151 -3.78,-3.78 -8.806,-5.862 -14.151,-5.862 -3.815,0 -7.468,1.06 -10.62,3.042 -7.724,-4.83 -18.052,-3.889 -24.763,2.82 -7.802,7.803 -7.802,20.499 0.001,28.302 l 24.767,24.767 z m -42.462,-21.231 c 1.952,-1.952 4.517,-2.928 7.081,-2.928 2.563,0 5.128,0.976 7.08,2.928 l 3.535,3.536 3.536,-3.536 c 1.891,-1.891 4.404,-2.932 7.079,-2.932 2.675,0 5.188,1.042 7.08,2.933 1.891,1.891 2.933,4.405 2.933,7.08 0,2.674 -1.042,5.188 -2.933,7.08 l -17.695,17.695 -17.695,-17.695 c -3.904,-3.905 -3.904,-10.257 -0.001,-14.161 z"
         id="path2-2" />
      <path
         inkscape:connector-curvature="0"
         d="m 149.517,197.175 c 0,45.757 37.227,82.983 82.983,82.983 45.756,0 82.983,-37.226 82.983,-82.983 V 114.192 H 149.517 Z m 82.983,9.836 c 7.805,0 14.154,6.35 14.154,14.154 0,7.804 -6.35,14.154 -14.154,14.154 -7.804,0 -14.154,-6.35 -14.154,-14.154 0,-7.805 6.35,-14.154 14.154,-14.154 z m 72.984,-9.836 c 0,38.56 -30.064,70.21 -67.979,72.792 v -25.173 c 10.925,-2.311 19.15,-12.027 19.15,-23.629 0,-11.603 -8.225,-21.319 -19.15,-23.63 v -73.343 h 67.979 z M 159.517,124.192 h 67.987 v 73.342 c -10.929,2.308 -19.158,12.026 -19.158,23.632 0,11.606 8.229,21.323 19.158,23.631 v 25.172 c -37.919,-2.579 -67.987,-34.231 -67.987,-72.793 z"
         id="path4-9" />
      <path
         inkscape:connector-curvature="0"
         d="m 366.63,296.058 v -51.263 c 10.927,-2.31 19.153,-12.026 19.153,-23.63 0,-11.605 -8.227,-21.321 -19.153,-23.631 v -45.249 h 10.032 v -5 c 0,-23.253 -18.819,-42.186 -42.025,-42.386 V 95.038 H 297.401 V 64.906 C 297.401,29.117 268.289,0 232.504,0 196.715,0 167.598,29.117 167.598,64.906 v 30.132 h -37.235 v 9.861 c -23.206,0.2 -42.025,19.133 -42.025,42.386 v 5 h 10.033 v 45.249 c -10.927,2.31 -19.154,12.026 -19.154,23.631 0,11.604 8.227,21.321 19.154,23.63 v 51.263 c -10.421,2.293 -18.242,11.601 -18.242,22.7 0,12.815 10.427,23.242 23.242,23.242 12.815,0 23.241,-10.426 23.241,-23.242 h -10 c 0,7.301 -5.94,13.242 -13.241,13.242 -7.302,0 -13.242,-5.94 -13.242,-13.242 0,-7.302 5.94,-13.242 13.242,-13.242 h 5 v -60.721 c 10.927,-2.31 19.153,-12.026 19.153,-23.63 0,-11.605 -8.227,-21.321 -19.153,-23.631 v -45.249 h 21.992 v 44.89 c 0,40.343 23.512,75.294 57.552,91.879 5.211,14.314 16.747,24.946 30.88,29.166 v 24.199 c -10.925,2.311 -19.149,12.027 -19.149,23.63 0,11.603 8.225,21.318 19.149,23.629 v 43.271 l -42.47,8.999 V 465 h 52.474 l -0.004,-144.925 c 1.226,0.094 2.463,0.145 3.71,0.145 1.244,0 2.477,-0.051 3.7,-0.144 L 236.202,465 h 52.474 v -23.052 l -42.471,-8.999 v -43.271 c 10.926,-2.311 19.151,-12.026 19.151,-23.63 0,-11.604 -8.226,-21.319 -19.151,-23.63 v -24.197 c 14.133,-4.218 25.668,-14.851 30.879,-29.167 34.04,-16.585 57.554,-51.537 57.554,-91.88 v -44.89 h 21.993 v 45.249 c -10.927,2.31 -19.154,12.026 -19.154,23.631 0,11.604 8.227,21.321 19.154,23.63 v 60.721 h 5 c 7.301,0 13.241,5.94 13.241,13.242 0,7.302 -5.941,13.243 -13.242,13.243 -7.302,0 -13.242,-5.94 -13.242,-13.242 h -10 c 0,12.815 10.427,23.242 23.242,23.242 12.815,0 23.241,-10.426 23.241,-23.242 0.001,-11.099 -7.821,-20.406 -18.241,-22.7 z M 117.524,221.165 c 0,7.804 -6.35,14.154 -14.153,14.154 -7.805,0 -14.154,-6.35 -14.154,-14.154 0,-7.805 6.35,-14.154 14.154,-14.154 7.803,0 14.153,6.349 14.153,14.154 z m 68.801,228.887 32.47,-6.88 V 455 h -32.47 z m 23.32,-84.003 c 0,-6.041 3.811,-11.196 9.149,-13.224 v 26.447 c -5.338,-2.028 -9.149,-7.182 -9.149,-13.223 z m 69.03,84.003 V 455 h -32.471 v -11.829 z m -23.319,-84.003 c 0,6.041 -3.812,11.196 -9.151,13.224 v -26.448 c 5.339,2.027 9.151,7.182 9.151,13.224 z M 177.598,64.906 C 177.598,34.631 202.229,10 232.504,10 262.775,10 287.4,34.631 287.4,64.906 V 95.038 H 177.598 Z m -78.876,77.38 c 2.393,-15.38 15.643,-27.214 31.641,-27.394 v 27.394 z M 232.504,310.22 c -12.358,0 -23.533,-5.937 -30.421,-15.532 9.611,3.004 19.828,4.625 30.417,4.625 10.588,0 20.804,-1.62 30.415,-4.625 -6.885,9.595 -18.057,15.532 -30.411,15.532 z m 92.133,-113.045 c 0,50.805 -41.332,92.138 -92.137,92.138 -50.805,0 -92.138,-41.333 -92.138,-92.138 v -92.137 h 184.274 v 92.137 z m 10,-82.283 c 15.998,0.18 29.248,12.014 31.641,27.394 h -31.641 z m 12.839,106.273 c 0,-7.805 6.35,-14.154 14.154,-14.154 7.804,0 14.153,6.35 14.153,14.154 0,7.804 -6.35,14.154 -14.153,14.154 -7.804,0 -14.154,-6.35 -14.154,-14.154 z"
         id="path6-1" />
      <path
         inkscape:connector-curvature="0"
         d="m 255.689,159.583 c 7.786,0 14.121,-6.334 14.121,-14.121 0,-7.786 -6.335,-14.121 -14.121,-14.121 -7.786,0 -14.121,6.334 -14.121,14.121 0,7.786 6.335,14.121 14.121,14.121 z m 0,-18.242 c 2.272,0 4.121,1.849 4.121,4.121 0,2.272 -1.849,4.121 -4.121,4.121 -2.272,0 -4.121,-1.849 -4.121,-4.121 0,-2.273 1.849,-4.121 4.121,-4.121 z"
         id="path8-1" />
      <path
         inkscape:connector-curvature="0"
         d="m 287.612,159.583 c 7.786,0 14.121,-6.334 14.121,-14.121 0,-7.786 -6.335,-14.121 -14.121,-14.121 -7.786,0 -14.12,6.334 -14.12,14.121 0,7.786 6.334,14.121 14.12,14.121 z m 0,-18.242 c 2.272,0 4.121,1.849 4.121,4.121 0,2.272 -1.849,4.121 -4.121,4.121 -2.271,0 -4.12,-1.849 -4.12,-4.121 0,-2.273 1.848,-4.121 4.12,-4.121 z"
         id="path10-9" />
      <rect
         x="241.56799"
         y="163.26401"
         width="60.165001"
         height="10"
         id="rect12" />
      <rect
         x="241.56799"
         y="177.85699"
         width="60.165001"
         height="10"
         id="rect14" />
      <path
         inkscape:connector-curvature="0"
         d="m 258.95,40.132 h -52.9 c -9.295,0 -16.857,7.562 -16.857,16.857 0,9.295 7.563,16.857 16.857,16.857 h 52.9 c 9.295,0 16.857,-7.562 16.857,-16.857 0,-9.295 -7.562,-16.857 -16.857,-16.857 z m -23.977,10 -8.967,13.714 h -3.554 l 8.967,-13.714 z m -35.781,6.857 c 0,-3.781 3.076,-6.857 6.857,-6.857 h 13.422 l -8.967,13.714 h -4.455 c -3.781,0 -6.857,-3.076 -6.857,-6.857 z m 59.758,6.857 h -20.997 l 8.967,-13.714 h 12.03 c 3.781,0 6.857,3.076 6.857,6.857 0,3.781 -3.076,6.857 -6.857,6.857 z"
         id="path16" />
    </g>
    <g
       id="g4708"
       transform="matrix(0.26458333,0,0,0.26458333,-0.47504429,344.46436)">
      <path
         id="path4572"
         d="m 256.002,90.32 c -4.725,0 -8.553,-3.829 -8.553,-8.553 V 23.369 c 0,-4.723 3.828,-8.553 8.553,-8.553 4.725,0 8.553,3.829 8.553,8.553 v 58.398 c 0,4.723 -3.828,8.553 -8.553,8.553 z"
         style="fill:#2ba5f7"
         inkscape:connector-curvature="0" />
      <rect
         id="rect4574"
         height="34.782001"
         width="128.351"
         style="fill:#e09b2d"
         y="208.645"
         x="191.825" />
      <path
         id="path4576"
         d="M 364.126,81.047 V 217.768 H 320.175 191.825 147.874 V 81.047 c 0,-15.977 12.955,-28.932 28.932,-28.932 h 79.2 79.189 c 15.987,10e-4 28.931,12.956 28.931,28.932 z"
         style="fill:#f95428"
         inkscape:connector-curvature="0" />
      <path
         id="path4578"
         d="m 196.192,52.116 h -19.387 c -15.977,0 -28.932,12.955 -28.932,28.932 V 217.769 H 167.26 V 81.047 c 0.001,-15.976 12.956,-28.931 28.932,-28.931 z"
         style="fill:#e54728"
         inkscape:connector-curvature="0" />
      <g
         id="g4584">
        <rect
           id="rect4580"
           height="121.303"
           width="33.412998"
           style="fill:#f7b239"
           y="363.784"
           x="171.606" />
        <rect
           id="rect4582"
           height="121.303"
           width="33.402"
           style="fill:#f7b239"
           y="363.784"
           x="306.992" />
      </g>
      <path
         id="path4586"
         d="m 306.992,364.924 v 42.103 h 33.402 v -42.103 z m -135.386,42.103 h 33.413 v -42.103 h -33.413 z"
         style="fill:#e09b2d"
         inkscape:connector-curvature="0" />
      <g
         id="g4596">
        <rect
           id="rect4588"
           height="35.169998"
           width="62.299"
           style="fill:#f7b239"
           y="264.091"
           x="348.79901" />
        <rect
           id="rect4590"
           height="35.169998"
           width="63.166"
           style="fill:#f7b239"
           y="264.091"
           x="100.468" />
        <path
           id="path4592"
           d="m 203.251,108.576 c 16.513,0 29.89,13.388 29.89,29.89 0,16.513 -13.377,29.89 -29.89,29.89 -16.501,0 -29.878,-13.377 -29.878,-29.89 0,-16.502 13.377,-29.89 29.878,-29.89 z"
           style="fill:#f7b239"
           inkscape:connector-curvature="0" />
        <path
           id="path4594"
           d="m 308.749,108.576 c 16.501,0 29.89,13.388 29.89,29.89 0,16.513 -13.388,29.89 -29.89,29.89 -16.513,0 -29.89,-13.377 -29.89,-29.89 0,-16.502 13.377,-29.89 29.89,-29.89 z"
           style="fill:#f7b239"
           inkscape:connector-curvature="0" />
      </g>
      <g
         id="g4606">
        <polygon
           id="polygon4598"
           points="152.265,471.562 171.606,471.562 205.019,471.562 224.36,471.562 224.36,512 152.265,512 "
           style="fill:#f95428" />
        <polygon
           id="polygon4600"
           points="287.651,471.562 306.992,471.562 340.394,471.562 359.735,471.562 359.735,512 287.651,512 "
           style="fill:#f95428" />
        <path
           id="path4602"
           d="m 416.253,269.611 v 140.416 h -31.885 v -110.766 -35.17 -26.366 0 c 17.61,0 31.885,14.276 31.885,31.886 z"
           style="fill:#f95428"
           inkscape:connector-curvature="0" />
        <path
           id="path4604"
           d="M 127.632,299.261 V 410.027 H 95.747 V 269.611 c 0,-17.61 14.275,-31.885 31.885,-31.885 v 0 26.366 z"
           style="fill:#f95428"
           inkscape:connector-curvature="0" />
      </g>
      <path
         id="path4608"
         d="m 364.126,299.261 v 78.048 h -23.731 v -0.011 h -33.402 v 0.011 H 205.019 v -0.011 h -33.413 v 0.011 h -23.731 v -78.048 -35.17 -26.366 h 43.951 128.351 43.951 v 26.366 z"
         style="fill:#2ba5f7"
         inkscape:connector-curvature="0" />
      <rect
         id="rect4610"
         height="139.57201"
         width="38.042999"
         style="fill:#2197d8"
         y="237.72501"
         x="147.87399" />
      <g
         id="g4620">
        <path
           id="path4612"
           d="m 241.698,138.467 c 0,-21.196 -17.245,-38.441 -38.441,-38.441 -21.198,0 -38.442,17.245 -38.442,38.441 0,21.196 17.245,38.441 38.442,38.441 21.196,0 38.441,-17.245 38.441,-38.441 z m -59.778,0 c 0,-11.764 9.572,-21.336 21.337,-21.336 11.765,0 21.336,9.571 21.336,21.336 0,11.764 -9.571,21.336 -21.336,21.336 -11.765,0 -21.337,-9.572 -21.337,-21.336 z"
           style="fill:#4d4d4d"
           inkscape:connector-curvature="0" />
        <path
           id="path4614"
           d="m 308.748,176.908 c 21.196,0 38.441,-17.245 38.441,-38.441 0,-21.196 -17.245,-38.441 -38.441,-38.441 -21.198,0 -38.442,17.245 -38.442,38.441 0,21.196 17.244,38.441 38.442,38.441 z m 0,-59.778 c 11.764,0 21.335,9.571 21.335,21.336 0,11.765 -9.571,21.336 -21.335,21.336 -11.764,0 -21.337,-9.571 -21.337,-21.336 0,-11.765 9.572,-21.336 21.337,-21.336 z"
           style="fill:#4d4d4d"
           inkscape:connector-curvature="0" />
        <circle
           id="circle4616"
           r="8.5530005"
           cy="271.12701"
           cx="316.27499"
           style="fill:#4d4d4d" />
        <circle
           id="circle4618"
           r="8.5530005"
           cy="271.12701"
           cx="195.72501"
           style="fill:#4d4d4d" />
      </g>
      <circle
         id="circle4622"
         r="14.816"
         cy="14.816"
         cx="256.00601"
         style="fill:#f7b239" />
      <path
         id="path4624"
         d="m 303.469,330.906 h -94.937 c 0,-11.073 3.798,-21.268 10.149,-29.342 8.701,-11.039 22.181,-18.132 37.325,-18.132 26.217,0 47.463,21.257 47.463,47.474 z"
         style="fill:#e09b2d"
         inkscape:connector-curvature="0" />
      <path
         id="path4626"
         d="m 294.813,330.906 h -86.282 c 0,-11.073 3.798,-21.268 10.149,-29.342 8.074,-6.352 18.258,-10.149 29.342,-10.149 23.493,0 43.005,17.071 46.791,39.491 z"
         style="fill:#f7b239"
         inkscape:connector-curvature="0" />
      <g
         id="g4628" />
      <g
         id="g4630" />
      <g
         id="g4632" />
      <g
         id="g4634" />
      <g
         id="g4636" />
      <g
         id="g4638" />
      <g
         id="g4640" />
      <g
         id="g4642" />
      <g
         id="g4644" />
      <g
         id="g4646" />
      <g
         id="g4648" />
      <g
         id="g4650" />
      <g
         id="g4652" />
      <g
         id="g4654" />
      <g
         id="g4656" />
    </g>
    <g
       id="g4780"
       transform="matrix(0.26458333,0,0,0.26458333,-130.65587,-5.3791783)">
      <g
         id="g4720">
        <path
           id="path4710"
           d="m 207.5,95 c 10.336,0 19.128,-6.71 22.266,-16 H 271.5 c 4.142,0 7.5,-3.358 7.5,-7.5 0,-4.142 -3.358,-7.5 -7.5,-7.5 H 229.766 C 226.628,54.71 217.836,48 207.5,48 194.542,48 184,58.542 184,71.5 184,84.458 194.542,95 207.5,95 Z m 0,-32 c 4.687,0 8.5,3.813 8.5,8.5 0,4.687 -3.813,8.5 -8.5,8.5 -4.687,0 -8.5,-3.813 -8.5,-8.5 0,-4.687 3.813,-8.5 8.5,-8.5 z"
           inkscape:connector-curvature="0" />
        <path
           id="path4712"
           d="m 199.5,144 h -16 c -4.142,0 -7.5,3.358 -7.5,7.5 0,4.142 3.358,7.5 7.5,7.5 h 16 c 4.142,0 7.5,-3.358 7.5,-7.5 0,-4.142 -3.358,-7.5 -7.5,-7.5 z"
           inkscape:connector-curvature="0" />
        <path
           id="path4714"
           d="m 239.5,144 h -16 c -4.142,0 -7.5,3.358 -7.5,7.5 0,4.142 3.358,7.5 7.5,7.5 h 16 c 4.142,0 7.5,-3.358 7.5,-7.5 0,-4.142 -3.358,-7.5 -7.5,-7.5 z"
           inkscape:connector-curvature="0" />
        <path
           id="path4716"
           d="m 279.5,144 h -16 c -4.142,0 -7.5,3.358 -7.5,7.5 0,4.142 3.358,7.5 7.5,7.5 h 16 c 4.142,0 7.5,-3.358 7.5,-7.5 0,-4.142 -3.358,-7.5 -7.5,-7.5 z"
           inkscape:connector-curvature="0" />
        <path
           id="path4718"
           d="M 351,272.913 V 143 h 0.5 C 364.458,143 375,132.458 375,119.5 375,106.542 364.458,96 351.5,96 H 319 V 87.5 C 319,39.252 279.748,0 231.5,0 183.252,0 144,39.252 144,87.5 V 96 H 111.5 C 98.542,96 88,106.542 88,119.5 88,132.458 98.542,143 111.5,143 h 0.5 v 129.913 c -5.418,1.319 -10.551,4.09 -14.774,8.313 -12.282,12.282 -12.282,32.266 0,44.548 2.929,2.929 7.678,2.929 10.606,0 2.929,-2.929 2.929,-7.678 0,-10.606 -6.433,-6.434 -6.433,-16.901 0,-23.335 3.117,-3.116 7.26,-4.833 11.667,-4.833 4.407,0 8.551,1.716 11.667,4.833 6.433,6.434 6.433,16.901 0,23.335 -2.929,2.929 -2.929,7.678 0,10.606 1.464,1.464 3.384,2.197 5.303,2.197 1.919,0 3.839,-0.732 5.303,-2.197 12.282,-12.282 12.282,-32.266 0,-44.548 -4.223,-4.223 -9.356,-6.994 -14.774,-8.313 V 143 h 17 v 88.5 c 0,12.958 10.542,23.5 23.5,23.5 H 184 v 8.5 c 0,11.686 8.575,21.404 19.763,23.2 l 3.675,22.049 C 184.323,318.25 168,341 168,367.5 v 32 c 0,4.142 3.358,7.5 7.5,7.5 H 200 v 24.5 c 0,17.369 14.131,31.5 31.5,31.5 17.369,0 31.5,-14.131 31.5,-31.5 V 407 h 24.5 c 4.142,0 7.5,-3.358 7.5,-7.5 v -32 C 295,341 278.677,318.25 255.562,308.749 L 259.237,286.7 C 270.425,284.904 279,275.186 279,263.5 V 255 h 16.5 c 12.958,0 23.5,-10.542 23.5,-23.5 V 143 h 17 v 129.913 c -5.418,1.319 -10.551,4.09 -14.774,8.313 -12.282,12.282 -12.282,32.266 0,44.548 2.929,2.929 7.678,2.929 10.606,0 2.929,-2.929 2.929,-7.678 0,-10.606 -6.433,-6.434 -6.433,-16.901 0,-23.335 3.117,-3.116 7.26,-4.833 11.667,-4.833 4.407,0 8.551,1.716 11.667,4.833 6.433,6.434 6.433,16.901 0,23.335 -2.929,2.929 -2.929,7.678 0,10.606 1.464,1.464 3.384,2.197 5.303,2.197 1.919,0 3.839,-0.732 5.303,-2.197 12.282,-12.282 12.282,-32.266 0,-44.548 -4.221,-4.223 -9.354,-6.994 -14.772,-8.313 z M 159,127 h 145 v 81 H 159 Z m 0,-39.5 C 159,47.523 191.523,15 231.5,15 271.477,15 304,47.523 304,87.5 V 112 H 159 Z M 111.5,128 c -4.687,0 -8.5,-3.813 -8.5,-8.5 0,-4.687 3.813,-8.5 8.5,-8.5 H 144 v 17 z M 248,431.5 c 0,9.098 -7.402,16.5 -16.5,16.5 -9.098,0 -16.5,-7.402 -16.5,-16.5 v -64 c 0,-9.098 7.402,-16.5 16.5,-16.5 9.098,0 16.5,7.402 16.5,16.5 z m 32,-64 V 392 H 263 V 367.5 C 263,350.131 248.869,336 231.5,336 214.131,336 200,350.131 200,367.5 V 392 h -17 v -24.5 c 0,-26.743 21.757,-48.5 48.5,-48.5 26.743,0 48.5,21.757 48.5,48.5 z M 231.5,304 c -3.238,0 -6.419,0.247 -9.527,0.716 L 219.02,287 h 24.96 l -2.953,17.716 C 237.919,304.247 234.738,304 231.5,304 Z M 264,263.5 c 0,4.687 -3.813,8.5 -8.5,8.5 h -48 c -4.687,0 -8.5,-3.813 -8.5,-8.5 V 255 h 65 z M 295.5,240 h -24 -80 -24 c -4.687,0 -8.5,-3.813 -8.5,-8.5 V 223 h 145 v 8.5 c 0,4.687 -3.813,8.5 -8.5,8.5 z M 319,111 h 32.5 c 4.687,0 8.5,3.813 8.5,8.5 0,4.687 -3.813,8.5 -8.5,8.5 H 319 Z"
           inkscape:connector-curvature="0" />
      </g>
      <g
         id="g4722" />
      <g
         id="g4724" />
      <g
         id="g4726" />
      <g
         id="g4728" />
      <g
         id="g4730" />
      <g
         id="g4732" />
      <g
         id="g4734" />
      <g
         id="g4736" />
      <g
         id="g4738" />
      <g
         id="g4740" />
      <g
         id="g4742" />
      <g
         id="g4744" />
      <g
         id="g4746" />
      <g
         id="g4748" />
      <g
         id="g4750" />
    </g>
    <g
       id="g4843"
       transform="matrix(0.26458333,0,0,0.26458333,174.15284,320.17943)">
      <g
         id="g4786">
        <path
           id="path4782"
           d="m 446.899,350.267 -5.772,-34.631 c -1.105,-6.631 -4.888,-12.186 -10.126,-15.681 v -42.814 c 4.899,-4.31 8,-10.619 8,-17.642 v -16 c 0,-7.023 -3.101,-13.332 -8,-17.642 v -61.723 l 3.854,-1.927 c 2.54,-1.27 4.146,-3.867 4.146,-6.708 v -32.174 c 0,-12.618 -7.494,-23.983 -19.092,-28.953 L 389.605,61.385 C 384.802,59.326 379.329,59.814 374.966,62.692 370.604,65.569 368,70.406 368,75.631 V 80 H 324.957 L 298.488,14.772 C 294.898,5.798 286.333,0 276.667,0 h -90.334 c -9.666,0 -18.23,5.798 -21.806,14.737 L 138.044,80 H 95.001 v -4.369 c 0,-5.226 -2.604,-10.063 -6.967,-12.939 -4.363,-2.877 -9.838,-3.366 -14.639,-1.307 L 43.092,74.373 C 31.495,79.343 24,90.708 24,103.326 V 135.5 c 0,2.841 1.605,5.438 4.146,6.708 L 32,144.135 v 61.723 c -4.899,4.31 -8,10.619 -8,17.642 v 16 c 0,7.023 3.101,13.332 8,17.642 v 42.814 c -5.238,3.495 -9.021,9.05 -10.127,15.681 l -5.771,34.63 c -0.362,2.175 0.251,4.398 1.676,6.081 1.425,1.683 3.517,2.652 5.722,2.652 h 3.986 l 13.773,20.66 c 1.445,2.168 3.823,3.341 6.247,3.341 1.43,0 2.875,-0.408 4.153,-1.261 3.446,-2.297 4.378,-6.954 2.08,-10.4 L 45.514,359 H 47.5 c 2.841,0 5.438,-1.605 6.708,-4.146 L 60.135,343 h 6.73 l 5.927,11.854 C 74.063,357.395 76.66,359 79.5,359 h 1.986 l -8.227,12.34 c -2.298,3.446 -1.366,8.103 2.08,10.4 1.278,0.853 2.724,1.261 4.153,1.261 2.424,0 4.802,-1.173 6.247,-3.341 L 99.514,359 h 3.986 c 2.205,0 4.298,-0.97 5.723,-2.652 1.425,-1.682 2.038,-3.906 1.676,-6.081 l -5.772,-34.631 c -1.105,-6.631 -4.888,-12.186 -10.126,-15.681 v -124.32 l 9,4.5 v 3.365 c 0,26.191 21.309,47.5 47.5,47.5 h 8.5 v 34.234 c -9.29,3.138 -16,11.93 -16,22.266 v 16 c 0,12.958 10.542,23.5 23.5,23.5 h 0.5 v 32.5 c 0,2.361 1.111,4.583 3,6 l 13.012,9.759 c -0.003,0.081 -0.012,0.16 -0.012,0.241 V 400 H 153.39 c -8.959,0 -17.013,4.978 -21.019,12.991 l -19.578,39.155 c -1.163,2.325 -1.038,5.086 0.328,7.297 1.366,2.211 3.78,3.557 6.38,3.557 h 39.979 c 0.005,0 0.009,10e-4 0.014,10e-4 0.005,0 0.011,-10e-4 0.016,-10e-4 h 47.99 c 4.143,0 7.5,-3.358 7.5,-7.5 v -48 c 0,-4.142 -3.357,-7.5 -7.5,-7.5 H 199 v -17.005 c 0.162,0.005 0.323,0.02 0.484,0.02 2.36,0 4.735,-0.545 6.947,-1.65 5.285,-2.643 8.568,-7.955 8.568,-13.864 V 327 h 0.5 c 4.143,0 7.5,-3.358 7.5,-7.5 V 319 h 16.5 c 0.169,0 0.334,-0.014 0.5,-0.025 v 0.525 c 0,4.142 3.357,7.5 7.5,7.5 h 0.5 v 40.5 c 0,5.909 3.283,11.221 8.568,13.864 2.212,1.106 4.587,1.65 6.947,1.65 0.162,0 0.323,-0.014 0.484,-0.02 V 400 h -8.5 c -4.143,0 -7.5,3.358 -7.5,7.5 v 48 c 0,4.142 3.357,7.5 7.5,7.5 h 47.991 c 0.005,0 0.011,10e-4 0.016,10e-4 0.005,0 0.009,-10e-4 0.014,-10e-4 H 343.5 c 2.6,0 5.014,-1.346 6.38,-3.557 1.366,-2.211 1.491,-4.972 0.328,-7.297 L 330.63,412.991 C 326.624,404.978 318.57,400 309.611,400 H 279 v -24.5 c 0,-0.081 -0.01,-0.16 -0.012,-0.241 L 292,365.5 c 1.889,-1.417 3,-3.639 3,-6 V 327 h 0.5 c 12.958,0 23.5,-10.542 23.5,-23.5 v -16 c 0,-10.336 -6.71,-19.128 -16,-22.266 V 231 h 8.5 c 26.191,0 47.5,-21.309 47.5,-47.5 v -3.365 l 9,-4.5 v 124.32 c -5.238,3.495 -9.021,9.05 -10.127,15.681 l -5.771,34.63 c -0.362,2.175 0.251,4.398 1.676,6.081 1.425,1.683 3.517,2.653 5.722,2.653 h 3.986 l 13.773,20.66 c 1.445,2.168 3.823,3.341 6.247,3.341 1.43,0 2.875,-0.408 4.153,-1.261 3.446,-2.297 4.378,-6.954 2.08,-10.4 L 381.514,359 h 1.986 c 2.841,0 5.438,-1.605 6.708,-4.146 L 396.135,343 h 6.73 l 5.927,11.854 c 1.271,2.541 3.867,4.146 6.708,4.146 h 1.986 l -8.227,12.34 c -2.298,3.446 -1.366,8.103 2.08,10.4 1.278,0.853 2.724,1.261 4.153,1.261 2.424,0 4.802,-1.173 6.247,-3.341 L 435.514,359 h 3.986 c 2.205,0 4.298,-0.97 5.723,-2.652 1.425,-1.682 2.038,-3.906 1.676,-6.081 z M 178.441,20.343 C 179.739,17.097 182.837,15 186.334,15 h 90.334 c 3.496,0 6.595,2.097 7.907,5.378 L 299.03,56 H 163.971 Z M 157.95,70.838 c 0.5,0.105 1.019,0.162 1.55,0.162 h 144 c 0.532,0 1.05,-0.057 1.551,-0.162 L 308.769,80 H 231.5 154.231 Z m 46.619,88.338 c -1.644,2.701 -2.886,5.671 -3.659,8.823 h -17.327 c 1.214,-7.785 4.291,-14.957 8.752,-21.058 z m -1.627,-22.842 c 6.101,-4.461 13.274,-7.538 21.059,-8.752 v 17.327 c -3.152,0.773 -6.122,2.015 -8.824,3.659 z m -2.032,46.665 c 0.773,3.153 2.016,6.124 3.66,8.826 l -12.234,12.235 c -4.461,-6.102 -7.539,-13.275 -8.752,-21.061 z m 14.266,19.432 c 2.702,1.644 5.672,2.886 8.824,3.659 v 17.327 c -7.785,-1.214 -14.958,-4.291 -21.059,-8.752 z M 215,175.5 c 0,-9.098 7.402,-16.5 16.5,-16.5 9.098,0 16.5,7.402 16.5,16.5 0,9.098 -7.402,16.5 -16.5,16.5 -9.098,0 -16.5,-7.402 -16.5,-16.5 z m 32.825,-26.931 c -2.702,-1.644 -5.672,-2.886 -8.824,-3.659 v -17.327 c 7.785,1.214 14.958,4.291 21.059,8.752 z m 22.841,-1.628 c 4.461,6.101 7.538,13.274 8.752,21.058 h -17.327 c -0.773,-3.152 -2.015,-6.122 -3.659,-8.823 z M 239,206.091 c 3.152,-0.773 6.122,-2.015 8.824,-3.659 l 12.234,12.235 c -6.101,4.461 -13.274,7.538 -21.059,8.752 v -17.328 z m 19.432,-14.267 c 1.644,-2.702 2.886,-5.673 3.66,-8.825 h 17.327 c -1.214,7.786 -4.291,14.959 -8.752,21.06 z M 273.579,128 c -11.213,-9.944 -25.948,-16 -42.078,-16 -16.13,0 -30.866,6.056 -42.078,16 H 175.5 c -4.687,0 -8.5,-3.813 -8.5,-8.5 V 95 h 64.5 64.5 v 24.5 c 0,4.687 -3.813,8.5 -8.5,8.5 z M 39,223.5 c 0,-4.687 3.813,-8.5 8.5,-8.5 H 80 v 33 H 47.5 c -4.687,0 -8.5,-3.813 -8.5,-8.5 z m 8,-23.487 v -48.377 l 33,16.5 V 200 H 47.5 c -0.167,0 -0.333,0.009 -0.5,0.013 z M 80,263 v 33 H 47 v -33.013 c 0.167,0.003 0.332,0.013 0.5,0.013 z m 4.135,81 -5.927,-11.854 C 76.938,329.605 74.341,328 71.5,328 h -16 c -2.841,0 -5.438,1.605 -6.708,4.146 L 42.866,344 H 32.354 l 4.315,-25.897 C 37.356,313.987 40.882,311 45.054,311 h 36.893 c 4.172,0 7.698,2.987 8.384,7.103 L 94.647,344 Z M 104,163.365 39,130.865 V 103.326 C 39,96.717 42.926,90.763 49,88.16 L 79.304,75.173 c 0.088,-0.038 0.249,-0.106 0.473,0.042 0.225,0.148 0.225,0.323 0.225,0.417 L 80,112.873 c 0,6.277 2.444,12.179 6.883,16.617 l 14.627,14.627 c 1.606,1.605 2.49,3.74 2.49,6.011 z M 151.5,216 C 133.579,216 119,201.42 119,183.5 v -8 -25.373 c 0,-6.277 -2.444,-12.179 -6.883,-16.617 L 97.49,118.883 C 95.884,117.278 95,115.143 95,112.872 V 95 h 57 v 24.5 c 0,12.958 10.542,23.5 23.5,23.5 h 1.475 c -5.692,9.514 -8.974,20.627 -8.975,32.497 0,0 0,10e-4 0,10e-4 v 0 0.001 c 0,15.381 5.5,29.5 14.632,40.5 H 151.5 Z M 200,448 h -26.486 l 5.852,-8.778 c 0.093,-0.139 0.248,-0.222 0.415,-0.222 H 200 Z m 0,-33 v 9 h -20.219 c -5.194,0 -10.016,2.581 -12.896,6.902 L 155.487,448 h -23.851 l 14.15,-28.302 C 147.235,416.8 150.148,415 153.389,415 Z m 0,-47.5 c 0,0.138 0,0.309 -0.276,0.447 -0.275,0.137 -0.412,0.036 -0.523,-0.047 L 183,355.75 V 327 h 17 z m 8,-55.5 h -40.5 c -4.687,0 -8.5,-3.813 -8.5,-8.5 v -16 c 0,-4.687 3.813,-8.5 8.5,-8.5 h 24 c 9.098,0 16.5,7.402 16.5,16.5 z m 32,-16.5 v 8.525 C 239.834,304.014 239.669,304 239.5,304 H 223 v -8.5 c 0,-2.945 -0.415,-5.794 -1.175,-8.5 h 19.349 c -0.758,2.706 -1.174,5.555 -1.174,8.5 z M 250.554,272 h -38.107 c -5.571,-4.971 -12.91,-8 -20.946,-8 H 175 v -33 h 24.501 c 0.357,0 0.706,-0.034 1.05,-0.082 9.164,5.138 19.717,8.082 30.949,8.082 11.232,0 21.785,-2.944 30.949,-8.082 0.344,0.048 0.693,0.082 1.05,0.082 H 288 v 33 h -16.5 c -8.036,0 -15.375,3.029 -20.946,8 z M 263,448 v -9 h 20.219 c 0.167,0 0.322,0.083 0.416,0.223 l 5.852,8.777 z m 46.612,-33 c 3.24,0 6.153,1.8 7.603,4.699 L 331.365,448 h -23.85 L 296.117,430.903 C 293.235,426.581 288.414,424 283.22,424 H 263 v -9 z M 280,355.75 263.8,367.9 c -0.111,0.082 -0.247,0.184 -0.523,0.047 C 263,367.809 263,367.638 263,367.5 V 327 h 17 z m 24,-68.25 v 16 c 0,4.687 -3.813,8.5 -8.5,8.5 H 255 v -16.5 c 0,-9.098 7.402,-16.5 16.5,-16.5 h 24 c 4.687,0 8.5,3.813 8.5,8.5 z M 350.883,133.51 C 346.445,137.948 344,143.85 344,150.127 v 25.373 8 c 0,17.92 -14.579,32.5 -32.5,32.5 H 280.368 C 289.5,205 295,190.881 295,175.5 c 0,0 0,0 0,-0.001 v 0 -0.001 c 0,-11.87 -3.282,-22.984 -8.975,-32.498 h 1.475 c 12.958,0 23.5,-10.542 23.5,-23.5 V 95 h 57 v 17.873 c 0,2.271 -0.884,4.405 -2.49,6.011 z M 359,163.365 v -13.237 c 0,-2.271 0.884,-4.405 2.49,-6.011 L 376.117,129.49 C 380.555,125.052 383,119.15 383,112.873 V 75.631 c 0,-0.094 0,-0.269 0.225,-0.417 0.224,-0.148 0.385,-0.08 0.473,-0.042 L 414,88.16 c 6.074,2.604 10,8.557 10,15.166 v 27.539 z M 415.5,248 H 383 v -33 h 32.5 c 4.687,0 8.5,3.813 8.5,8.5 v 16 c 0,4.687 -3.813,8.5 -8.5,8.5 z m 0.5,14.987 V 296 h -33 v -33 h 32.5 c 0.168,0 0.334,-0.009 0.5,-0.013 z M 383,200 v -31.865 l 33,-16.5 v 48.377 c -0.167,-0.003 -0.332,-0.013 -0.5,-0.013 H 383 Z m 37.135,144 -5.927,-11.854 C 412.937,329.605 410.341,328 407.5,328 h -16 c -2.841,0 -5.438,1.605 -6.708,4.146 L 378.866,344 h -10.512 l 4.315,-25.897 c 0.687,-4.116 4.213,-7.103 8.385,-7.103 h 36.893 c 4.172,0 7.698,2.987 8.384,7.103 L 430.647,344 Z"
           inkscape:connector-curvature="0" />
        <path
           id="path4784"
           d="m 263.5,32 h -64 c -4.143,0 -7.5,3.358 -7.5,7.5 0,4.142 3.357,7.5 7.5,7.5 h 64 c 4.143,0 7.5,-3.358 7.5,-7.5 0,-4.142 -3.357,-7.5 -7.5,-7.5 z"
           inkscape:connector-curvature="0" />
      </g>
      <g
         id="g4788" />
      <g
         id="g4790" />
      <g
         id="g4792" />
      <g
         id="g4794" />
      <g
         id="g4796" />
      <g
         id="g4798" />
      <g
         id="g4800" />
      <g
         id="g4802" />
      <g
         id="g4804" />
      <g
         id="g4806" />
      <g
         id="g4808" />
      <g
         id="g4810" />
      <g
         id="g4812" />
      <g
         id="g4814" />
      <g
         id="g4816" />
    </g>
    <g
       id="g5587"
       transform="translate(219.81177,-177.25505)">
      <path
         id="path4845"
         d="m 21.122235,166.20307 c 5.325533,0 9.624483,4.29895 9.624483,9.62449 0,5.32553 -4.29895,9.62448 -9.624483,9.62448 -5.325534,0 -9.624484,-4.29895 -9.624484,-9.62448 0,-5.32554 4.29895,-9.62449 9.624484,-9.62449 z"
         style="fill:#ff3636;fill-opacity:1;stroke-width:0.26458332"
         inkscape:connector-curvature="0" />
      <path
         id="path4847"
         d="m 114.15952,166.20307 c 5.32554,0 9.62449,4.29895 9.62449,9.62449 0,5.32553 -4.29895,9.62448 -9.62449,9.62448 -5.32553,0 -9.62448,-4.29895 -9.62448,-9.62448 -2.6e-4,-5.32554 4.29869,-9.62449 9.62448,-9.62449 z"
         style="fill:#ff3636;fill-opacity:1;stroke-width:0.26458332"
         inkscape:connector-curvature="0" />
      <rect
         id="rect4849"
         height="14.436725"
         width="38.498199"
         style="fill:#afb6bb;stroke-width:0.26458332"
         y="183.84814"
         x="48.391781" />
      <rect
         id="rect4851"
         height="19.248966"
         width="11.228652"
         style="fill:#afb6bb;stroke-width:0.26458332"
         y="222.34607"
         x="9.8935823" />
      <rect
         id="rect4853"
         height="19.248966"
         width="11.228652"
         style="fill:#afb6bb;stroke-width:0.26458332"
         y="222.34607"
         x="114.15952" />
      <polygon
         transform="matrix(0.26458333,0,0,0.26458333,4.7011349,164.2187)"
         id="polygon4855"
         points="62.064,292.447 62.064,219.694 62.064,128.754 165.13,128.754 310.635,128.754 413.701,128.754 413.701,219.694 413.701,292.447 413.701,468.265 62.064,468.265 "
         style="fill:#767d81" />
      <path
         id="path4859"
         d="m 96.514461,262.44844 v 6.41641 c 0,1.7645 -1.443567,3.20807 -3.208073,3.20807 H 41.97537 c -1.764506,0 -3.208073,-1.44357 -3.208073,-3.20807 v -6.41641 c 0,-1.76451 1.443567,-3.20808 3.208073,-3.20808 h 51.330753 c 1.764771,-2.6e-4 3.208338,1.44357 3.208338,3.20808 z"
         style="fill:#ff3636;fill-opacity:1;stroke-width:0.26458332"
         inkscape:connector-curvature="0" />
      <path
         id="path4861"
         d="m 45.183707,214.32576 c 7.09004,0 12.832556,5.74251 12.832556,12.83282 0,7.09004 -5.742516,12.83282 -12.832556,12.83282 -7.090039,0 -12.83282,-5.74252 -12.83282,-12.83282 0,-7.09031 5.742781,-12.83282 12.83282,-12.83282 z"
         style="fill:#ff3636;fill-opacity:1;stroke-width:0.26458332"
         inkscape:connector-curvature="0" />
      <path
         id="path4863"
         d="m 90.09805,214.32576 c 7.09004,0 12.83256,5.74251 12.83256,12.83282 0,7.09004 -5.74252,12.83282 -12.83256,12.83282 -7.090039,0 -12.83282,-5.74252 -12.83282,-12.83282 2.64e-4,-7.09031 5.742781,-12.83282 12.83282,-12.83282 z"
         style="fill:#ff3636;fill-opacity:1;stroke-width:0.26458332"
         inkscape:connector-curvature="0" />
      <path
         style="stroke-width:0.26458332"
         id="path4867"
         d="M 127.37229,220.3617 H 116.1439 v -33.09859 c 5.45862,-0.94456 9.62448,-5.71129 9.62448,-11.43555 0,-6.40107 -5.20779,-11.60886 -11.60886,-11.60886 -6.40106,0 -11.60886,5.20779 -11.60886,11.60886 0,5.72426 4.16587,10.49099 9.62449,11.43555 v 9.03711 H 88.874353 V 181.8635 H 46.407405 v 14.43672 H 23.10661 v -9.03711 c 5.458618,-0.94456 9.624483,-5.71129 9.624483,-11.43555 0,-6.40107 -5.207529,-11.60886 -11.608858,-11.60886 -6.401329,0 -11.6088585,5.20779 -11.6088585,11.60886 0,5.72426 4.1658645,10.49099 9.6244835,11.43555 V 220.3617 H 7.9092078 v 23.21771 H 19.13786 v 46.51851 h 97.00577 v -46.51851 h 11.22839 V 220.3617 Z m -20.85314,-44.53414 c 0,-4.2127 3.42741,-7.64011 7.64011,-7.64011 4.21269,0 7.64011,3.42741 7.64011,7.64011 0,4.21269 -3.42742,7.64011 -7.64011,7.64011 -4.2127,0 -7.64011,-3.42742 -7.64011,-7.64011 z m -93.037024,0 c 0,-4.2127 3.427413,-7.64011 7.640109,-7.64011 4.212695,0 7.640108,3.42741 7.640108,7.64011 0,4.21269 -3.427148,7.64011 -7.640108,7.64011 -4.212961,0 -7.640109,-3.42742 -7.640109,-7.64011 z m 36.894029,10.00469 h 15.280217 v 6.03594 h 3.96875 v -6.03594 h 15.280216 v 10.46797 H 50.376155 Z m -38.498197,38.4982 h 7.259902 v 15.28021 H 11.877958 Z M 112.17515,286.12944 H 23.10661 v -85.8602 h 89.06827 v 85.8602 z m 11.22839,-46.51878 h -7.25964 v -15.28021 h 7.25964 z"
         inkscape:connector-curvature="0" />
      <path
         style="stroke-width:0.26458332"
         id="path4869"
         d="m 60.000638,227.15858 c 0,-8.17034 -6.646862,-14.8172 -14.816931,-14.8172 -8.170068,0 -14.816931,6.64686 -14.816931,14.8172 0,8.17006 6.646863,14.81693 14.816931,14.81693 8.170069,0 14.816931,-6.64687 14.816931,-14.81693 z m -25.665376,0 c 0,-5.9817 4.866481,-10.84845 10.848181,-10.84845 5.9817,0 10.848181,4.86675 10.848181,10.84845 0,5.9817 -4.866481,10.84818 -10.848181,10.84818 -5.9817,0 -10.848181,-4.86648 -10.848181,-10.84818 z"
         inkscape:connector-curvature="0" />
      <path
         style="stroke-width:0.26458332"
         id="path4871"
         d="m 90.09805,212.34138 c -8.170068,0 -14.816931,6.64686 -14.816931,14.8172 0,8.17006 6.646863,14.81693 14.816931,14.81693 8.170069,0 14.81693,-6.64687 14.81693,-14.81693 2.7e-4,-8.17034 -6.646596,-14.8172 -14.81693,-14.8172 z m 0,25.66538 c -5.981699,0 -10.848181,-4.86648 -10.848181,-10.84818 0,-5.9817 4.866482,-10.84845 10.848181,-10.84845 5.9817,0 10.84818,4.86675 10.84818,10.84845 0,5.9817 -4.866215,10.84818 -10.84818,10.84818 z"
         inkscape:connector-curvature="0" />
      <path
         style="stroke-width:0.26458332"
         id="path4873"
         d="M 93.306388,257.25572 H 41.97537 c -2.863056,0 -5.192448,2.3294 -5.192448,5.19272 v 6.41641 c 0,2.86305 2.329392,5.19244 5.192448,5.19244 h 51.330753 c 2.863057,0 5.192448,-2.32939 5.192448,-5.19244 v -6.41641 c 2.65e-4,-2.86359 -2.329127,-5.19272 -5.192183,-5.19272 z m 1.223698,11.60913 c 0,0.66331 -0.560388,1.22369 -1.223698,1.22369 H 41.97537 c -0.663311,0 -1.223698,-0.56038 -1.223698,-1.22369 v -6.41641 c 0,-0.66358 0.560387,-1.22397 1.223698,-1.22397 h 51.330753 c 0.663311,0 1.223698,0.56039 1.223698,1.22397 z"
         inkscape:connector-curvature="0" />
    </g>
    <g
       id="g5056"
       transform="matrix(0.26458333,0,0,0.26458333,-270.22358,-1.1286295)">
      <g
         id="g4954">
        <g
           id="g4952">
          <path
             id="path4950"
             d="m 424.464,226.038 h -31.289 c -4.637,0 -8.394,3.758 -8.394,8.394 v 17.485 H 370.51 v -17.485 c 0,-4.636 -3.757,-8.394 -8.394,-8.394 h -34.743 v -17.351 h 34.743 c 4.637,0 8.394,-3.758 8.394,-8.394 V 66.121 c 0,-20.285 -16.502,-36.787 -36.787,-36.787 H 264.394 V 8.394 C 264.394,3.758 260.637,0 256,0 c -4.637,0 -8.394,3.758 -8.394,8.394 v 20.939 h -69.33 c -20.285,0 -36.787,16.503 -36.787,36.787 v 134.173 c 0,4.636 3.757,8.394 8.394,8.394 h 34.744 v 17.351 h -34.744 c -4.637,0 -8.394,3.758 -8.394,8.394 v 17.485 h -14.271 v -17.485 c 0,-4.636 -3.757,-8.394 -8.394,-8.394 h -31.29 c -4.637,0 -8.394,3.758 -8.394,8.394 v 169.096 c 0,4.636 3.757,8.394 8.394,8.394 h 31.289 c 4.637,0 8.394,-3.758 8.394,-8.394 V 303.215 h 14.271 v 68.203 c 0,4.636 3.757,8.394 8.394,8.394 h 14.9 v 75.713 h -10.586 c -4.637,0 -8.394,3.758 -8.394,8.394 v 39.686 c 0,4.636 3.757,8.394 8.394,8.394 h 70.744 c 4.637,0 8.394,-3.758 8.394,-8.394 v -39.686 c 0,-4.636 -3.757,-8.394 -8.394,-8.394 h -10.585 v -75.713 h 83.289 v 75.713 h -10.586 c -4.637,0 -8.394,3.758 -8.394,8.394 v 39.686 c 0,4.636 3.757,8.394 8.394,8.394 h 70.744 c 4.637,0 8.394,-3.758 8.394,-8.394 v -39.686 c 0,-4.636 -3.757,-8.394 -8.394,-8.394 h -10.585 v -75.713 h 14.9 c 4.637,0 8.394,-3.758 8.394,-8.394 v -68.203 h 14.271 v 100.312 c 0,4.636 3.757,8.394 8.394,8.394 h 31.289 c 4.637,0 8.394,-3.758 8.394,-8.394 V 234.431 c -0.002,-4.635 -3.759,-8.393 -8.395,-8.393 z M 110.43,395.134 H 95.929 V 242.826 h 14.501 z m 31.059,-108.706 h -14.271 v -17.723 h 14.271 z M 158.276,191.9 V 66.121 c 0,-11.028 8.972,-20 20,-20 h 155.447 c 11.028,0 20,8.972 20,20 V 191.9 Z m 152.31,16.786 v 17.351 H 201.414 v -17.351 z m -94.039,263.628 v 22.898 H 162.59 v -22.898 z m -34.976,-16.788 v -75.713 h 15.998 v 75.713 z m 167.838,16.788 v 22.898 h -53.957 v -22.898 z m -34.976,-16.788 v -75.713 h 15.998 v 75.713 0 z m 39.29,-92.502 H 158.276 V 242.826 h 195.446 v 120.198 z m 31.058,-76.596 H 370.51 v -17.723 h 14.271 z M 416.07,395.134 H 401.569 V 242.826 h 14.501 z"
             inkscape:connector-curvature="0" />
        </g>
      </g>
      <g
         id="g4960">
        <g
           id="g4958">
          <path
             id="path4956"
             d="m 204.236,84.744 c -20.803,0 -37.727,16.924 -37.727,37.726 0,20.802 16.924,37.726 37.727,37.726 20.802,0.001 37.726,-16.923 37.726,-37.726 0.001,-20.802 -16.923,-37.726 -37.726,-37.726 z m 0,58.665 c -11.545,0 -20.94,-9.392 -20.94,-20.939 0,-11.545 9.394,-20.939 20.94,-20.939 11.545,0 20.939,9.393 20.939,20.939 0,11.546 -9.393,20.939 -20.939,20.939 z"
             inkscape:connector-curvature="0" />
        </g>
      </g>
      <g
         id="g4966">
        <g
           id="g4964">
          <path
             id="path4962"
             d="m 307.765,84.744 c -20.803,0 -37.727,16.924 -37.727,37.726 0,20.802 16.924,37.727 37.727,37.727 20.802,0 37.726,-16.924 37.726,-37.726 0,-20.802 -16.924,-37.727 -37.726,-37.727 z m 0,58.665 c -11.545,0 -20.94,-9.393 -20.94,-20.939 0,-11.545 9.393,-20.939 20.94,-20.939 11.545,0 20.939,9.393 20.939,20.939 -0.001,11.546 -9.394,20.939 -20.939,20.939 z"
             inkscape:connector-curvature="0" />
        </g>
      </g>
      <g
         id="g4972">
        <g
           id="g4970">
          <path
             id="path4968"
             d="m 256.001,270.9 c -30.317,0 -54.982,24.664 -54.982,54.982 0,4.636 3.757,8.394 8.394,8.394 h 93.176 c 4.637,0 8.394,-3.758 8.394,-8.394 C 310.982,295.565 286.318,270.9 256.001,270.9 Z m -37.266,46.588 c 3.835,-17.036 19.089,-29.8 37.265,-29.8 18.177,0 33.43,12.764 37.265,29.8 z"
             inkscape:connector-curvature="0" />
        </g>
      </g>
      <g
         id="g4978">
        <g
           id="g4976">
          <circle
             id="circle4974"
             r="8.3940001"
             cy="267.215"
             cx="326.74399" />
        </g>
      </g>
      <g
         id="g4984">
        <g
           id="g4982">
          <circle
             id="circle4980"
             r="8.3940001"
             cy="267.215"
             cx="185.257" />
        </g>
      </g>
      <g
         id="g4986" />
      <g
         id="g4988" />
      <g
         id="g4990" />
      <g
         id="g4992" />
      <g
         id="g4994" />
      <g
         id="g4996" />
      <g
         id="g4998" />
      <g
         id="g5000" />
      <g
         id="g5002" />
      <g
         id="g5004" />
      <g
         id="g5006" />
      <g
         id="g5008" />
      <g
         id="g5010" />
      <g
         id="g5012" />
      <g
         id="g5014" />
    </g>
    <g
       id="g5242"
       transform="matrix(0.26458333,0,0,0.26458333,-251.62036,207.80124)">
      <path
         id="path5058"
         d="M 312.013,168.041 H 199.987 V 72.017 c 0,-30.935 25.078,-56.013 56.013,-56.013 v 0 c 30.935,0 56.013,25.078 56.013,56.013 z"
         style="fill:#ffffff"
         inkscape:connector-curvature="0" />
      <rect
         id="rect5060"
         height="24.006001"
         width="160.03799"
         style="fill:#fac15c"
         y="168.041"
         x="175.981" />
      <g
         id="g5066">
        <circle
           id="circle5062"
           r="24.006001"
           cy="64.014999"
           cx="456.05301"
           style="fill:#f9b233" />
        <circle
           id="circle5064"
           r="24.006001"
           cy="64.014999"
           cx="55.946999"
           style="fill:#f9b233" />
      </g>
      <g
         id="g5076">
        <rect
           id="rect5068"
           height="40.004002"
           width="24.006001"
           style="fill:#fac15c"
           y="352.08801"
           x="320.013" />
        <rect
           id="rect5070"
           height="48.011002"
           width="24.006001"
           style="fill:#fac15c"
           y="184.047"
           x="344.022" />
        <rect
           id="rect5072"
           height="48.011002"
           width="24.006001"
           style="fill:#fac15c"
           y="184.047"
           x="143.96899" />
        <rect
           id="rect5074"
           height="40.004002"
           width="24.006001"
           style="fill:#fac15c"
           y="352.08801"
           x="167.978" />
      </g>
      <g
         id="g5082">
        <rect
           id="rect5078"
           height="72.015999"
           width="48.011002"
           style="fill:#f9b233"
           y="432.10699"
           x="360.02802" />
        <rect
           id="rect5080"
           height="72.015999"
           width="48.011002"
           style="fill:#f9b233"
           y="432.10699"
           x="103.965" />
      </g>
      <g
         id="g5088">
        <polygon
           id="polygon5084"
           points="103.963,472.114 103.963,504.123 63.953,504.123 63.953,488.119 "
           style="fill:#1d71b8" />
        <polygon
           id="polygon5086"
           points="408.037,472.114 408.037,504.123 448.047,504.123 448.047,488.119 "
           style="fill:#1d71b8" />
      </g>
      <rect
         id="rect5090"
         height="88.022003"
         width="128.037"
         style="fill:#77aad4"
         y="296.06699"
         x="191.987" />
      <rect
         id="rect5092"
         height="88.022003"
         width="64.015999"
         style="fill:#1d71b8"
         y="296.06699"
         x="256" />
      <rect
         id="rect5094"
         height="104.028"
         width="176.04401"
         style="fill:#77aad4"
         y="192.05"
         x="167.978" />
      <rect
         id="rect5096"
         height="104.028"
         width="88.022003"
         style="fill:#1d71b8"
         y="192.05"
         x="256" />
      <rect
         id="rect5098"
         height="32.008999"
         width="32.008999"
         style="fill:#fac15c"
         y="224.05099"
         x="239.994" />
      <path
         id="path5100"
         d="m 279.881,263.94 h -47.763 v -47.763 h 47.763 z m -32.008,-15.754 h 16.255 v -16.255 h -16.255 z"
         style="fill:#1d1d1b"
         inkscape:connector-curvature="0" />
      <g
         id="g5110">
        <rect
           id="rect5102"
           height="15.754"
           width="16.004"
           style="fill:#ffffff"
           y="232.17999"
           x="288.01199" />
        <rect
           id="rect5104"
           height="15.754"
           width="16.004"
           style="fill:#ffffff"
           y="232.17999"
           x="312.01001" />
        <rect
           id="rect5106"
           height="15.754"
           width="16.004"
           style="fill:#ffffff"
           y="232.17999"
           x="183.98399" />
        <rect
           id="rect5108"
           height="15.754"
           width="16.004"
           style="fill:#ffffff"
           y="232.17999"
           x="207.993" />
      </g>
      <g
         id="g5142">
        <rect
           id="rect5112"
           height="28.290001"
           width="15.754"
           style="fill:#1d1d1b"
           transform="matrix(-0.7071,-0.7071,0.7071,-0.7071,352.7919,278.1466)"
           y="51.862"
           x="226.125" />
        <rect
           id="rect5114"
           height="79.209999"
           width="15.754"
           style="fill:#1d1d1b"
           transform="matrix(-0.7071,-0.7071,0.7071,-0.7071,362.3223,342.1053)"
           y="56.408001"
           x="244.13699" />
        <rect
           id="rect5116"
           height="22.632"
           width="15.754"
           style="fill:#1d1d1b"
           transform="matrix(-0.7071,-0.7071,0.7071,-0.7071,395.9919,396.0613)"
           y="104.702"
           x="272.146" />
        <path
           id="path5118"
           d="m 416.039,215.927 h -16.012 v -15.754 h 16.012 c 4.27,0 8.414,-0.821 12.316,-2.442 l 6.043,14.548 c -5.827,2.421 -12.004,3.648 -18.359,3.648 z m 34.016,-14.181 -11.189,-11.09 c 6.001,-6.056 9.306,-14.087 9.306,-22.615 v -0.503 h 15.754 v 0.503 c 0,12.71 -4.926,24.679 -13.871,33.705 z m 13.871,-50.087 h -15.754 v -31.756 h 15.754 z"
           style="fill:#1d1d1b"
           inkscape:connector-curvature="0" />
        <path
           id="path5120"
           d="M 111.973,215.927 H 95.961 c -6.355,0 -12.532,-1.228 -18.358,-3.649 l 6.043,-14.548 c 3.902,1.621 8.046,2.442 12.316,2.442 h 16.012 v 15.755 z M 61.945,201.746 C 53,192.72 48.074,180.751 48.074,168.041 v -0.503 h 15.754 v 0.503 c 0,8.528 3.305,16.56 9.306,22.615 z m 1.883,-50.087 H 48.074 v -31.756 h 15.754 z"
           style="fill:#1d1d1b"
           inkscape:connector-curvature="0" />
        <path
           id="path5122"
           d="M 351.899,303.949 V 184.17 H 160.101 v 119.78 h 24.006 v 88.021 H 327.892 V 303.95 h 24.007 z M 175.855,199.924 h 160.29 v 88.272 H 175.855 Z M 312.139,376.217 H 199.861 V 303.95 h 112.278 z"
           style="fill:#1d1d1b"
           inkscape:connector-curvature="0" />
        <path
           id="path5124"
           d="M 336.019,160.164 H 319.89 V 72.017 c 0,-11.385 -3.007,-22.075 -8.249,-31.342 V 0 H 295.637 V 21.965 C 284.737,13.314 270.966,8.127 256,8.127 c -15.214,0 -29.197,5.354 -40.182,14.266 V 0 h -16.004 v 41.623 c -4.912,9.044 -7.705,19.399 -7.705,30.394 v 88.147 H 175.98 v 15.754 H 336.018 V 160.164 Z M 207.864,72.017 c 0,-26.542 21.594,-48.136 48.136,-48.136 26.542,0 48.136,21.594 48.136,48.136 v 88.147 H 207.862 V 72.017 Z"
           style="fill:#1d1d1b"
           inkscape:connector-curvature="0" />
        <path
           id="path5126"
           d="M 455.924,512 V 482.786 L 416.489,467.011 V 424.229 H 383.907 V 408.1 h -15.754 v 16.129 H 352.149 V 512 Z m -55.189,-15.754 h -32.832 v -56.263 h 32.832 z m 39.435,-2.794 v 2.794 h -23.681 v -12.267 z"
           style="fill:#1d1d1b"
           inkscape:connector-curvature="0" />
        <path
           id="path5128"
           d="m 160.101,368.215 h -0.125 c -17.58,0 -31.883,14.302 -31.883,31.883 h 15.754 c 0,-8.894 7.235,-16.129 16.129,-16.129 h 0.125 v 8.127 h 15.754 v -40.01 h -15.754 z"
           style="fill:#1d1d1b"
           inkscape:connector-curvature="0" />
        <path
           id="path5130"
           d="M 159.852,512 V 424.229 H 143.848 V 408.1 h -15.754 v 16.129 H 95.511 v 42.782 L 56.076,482.786 V 512 Z M 71.83,496.246 v -2.794 l 23.681,-9.473 v 12.267 z m 72.268,0 h -32.833 v -56.263 h 32.833 z"
           style="fill:#1d1d1b"
           inkscape:connector-curvature="0" />
        <path
           id="path5132"
           d="m 368.153,400.097 h 15.754 c 0,-17.58 -14.302,-31.883 -31.883,-31.883 h -0.125 v -16.128 h -15.754 v 40.01 h 15.754 v -8.127 h 0.125 c 8.892,-10e-4 16.129,7.235 16.129,16.128 z"
           style="fill:#1d1d1b"
           inkscape:connector-curvature="0" />
        <polygon
           id="polygon5134"
           points="375.905,200.174 375.905,184.045 360.151,184.045 360.151,232.056 375.905,232.056 375.905,215.927 384.031,215.927 384.031,200.174 "
           style="fill:#1d1d1b" />
        <path
           id="path5136"
           d="m 487.931,64.015 c 0,-17.58 -14.302,-31.883 -31.883,-31.883 -17.58,0 -31.883,14.302 -31.883,31.883 0,14.862 10.223,27.38 24.006,30.896 v 9.114 h 15.754 v -9.114 c 13.784,-3.516 24.006,-16.033 24.006,-30.896 z m -31.882,16.13 c -8.894,0 -16.129,-7.236 -16.129,-16.129 0,-8.893 7.235,-16.129 16.129,-16.129 8.894,0 16.129,7.236 16.129,16.129 0,8.893 -7.236,16.129 -16.129,16.129 z"
           style="fill:#1d1d1b"
           inkscape:connector-curvature="0" />
        <polygon
           id="polygon5138"
           points="136.095,184.045 136.095,200.174 127.968,200.174 127.968,215.927 136.095,215.927 136.095,232.056 151.849,232.056 151.849,184.045 "
           style="fill:#1d1d1b" />
        <path
           id="path5140"
           d="m 63.828,104.026 v -9.114 c 13.784,-3.516 24.006,-16.034 24.006,-30.896 0,-17.58 -14.302,-31.883 -31.883,-31.883 -17.581,0 -31.882,14.302 -31.882,31.882 0,14.862 10.223,27.38 24.006,30.896 v 9.114 c -0.001,10e-4 15.753,10e-4 15.753,10e-4 z M 39.823,64.015 c 0,-8.894 7.235,-16.129 16.129,-16.129 8.894,0 16.128,7.237 16.128,16.129 0,8.892 -7.235,16.13 -16.129,16.13 -8.894,0 -16.128,-7.236 -16.128,-16.13 z"
           style="fill:#1d1d1b"
           inkscape:connector-curvature="0" />
      </g>
      <rect
         id="rect5144"
         height="56.009998"
         width="15.754"
         style="fill:#ffffff"
         y="312.073"
         x="248.123" />
      <g
         id="g5146" />
      <g
         id="g5148" />
      <g
         id="g5150" />
      <g
         id="g5152" />
      <g
         id="g5154" />
      <g
         id="g5156" />
      <g
         id="g5158" />
      <g
         id="g5160" />
      <g
         id="g5162" />
      <g
         id="g5164" />
      <g
         id="g5166" />
      <g
         id="g5168" />
      <g
         id="g5170" />
      <g
         id="g5172" />
      <g
         id="g5174" />
    </g>
    <g
       id="g5439"
       transform="translate(-142.7188,178.89247)">
      <path
         style="stroke-width:0.26458332"
         inkscape:connector-curvature="0"
         d="m 60.396244,207.0003 c 4.376738,0 7.9375,-3.56076 7.9375,-7.9375 v -1.32291 h -15.875 v 1.32291 c 0,4.37674 3.560763,7.9375 7.9375,7.9375 z m 5.12445,-6.61458 c -0.588962,2.27965 -2.663031,3.96875 -5.124185,3.96875 -2.461154,0 -4.535488,-1.6891 -5.124186,-3.96875 z"
         id="path5244" />
      <path
         style="stroke-width:0.26458332"
         inkscape:connector-curvature="0"
         d="m 71.200769,199.0628 c 0,4.37674 3.560762,7.9375 7.9375,7.9375 4.376737,0 7.9375,-3.56076 7.9375,-7.9375 v -1.32291 h -15.875 z m 13.06195,1.32292 c -0.588963,2.27965 -2.663031,3.96875 -5.124186,3.96875 -2.461154,0 -4.535487,-1.6891 -5.124185,-3.96875 z"
         id="path5246" />
      <rect
         style="stroke-width:0.26458332"
         x="52.45874"
         y="193.22662"
         width="34.617023"
         height="2.6458333"
         id="rect5248" />
      <path
         style="stroke-width:0.26458332"
         inkscape:connector-curvature="0"
         d="m 76.678438,237.44326 -13.758069,-0.0627 c -0.0095,0 -0.01879,0 -0.02805,0 -3.342481,0 -6.069541,2.71171 -6.085152,6.0579 -0.01508,3.35544 2.70219,6.09785 6.057636,6.11293 l 13.758333,0.0627 c 0.0093,0 0.01852,0 0.02805,0 3.342216,0 6.069277,-2.71171 6.084887,-6.0579 0.01535,-3.35518 -2.702454,-6.09758 -6.057635,-6.11293 z m -12.452086,2.58921 1.939661,0.009 -0.02858,6.87916 -1.941513,-0.009 z m 4.585494,0.0209 1.939396,0.009 -0.02884,6.87916 -1.939396,-0.009 z m 4.585494,0.0209 1.941777,0.009 -0.03069,6.87917 -1.93966,-0.009 z m -13.944335,3.37635 c 0.0066,-1.42637 0.885031,-2.64769 2.126456,-3.16257 l -0.02831,6.34471 c -1.237191,-0.52599 -2.10476,-1.75578 -2.098146,-3.18214 z m 18.502312,3.26072 0.02831,-6.35238 c 1.24169,0.52414 2.112963,1.75577 2.106613,3.18532 -0.0069,1.42769 -0.892704,2.65403 -2.134923,3.16706 z"
         id="path5250" />
      <path
         style="fill:#000000;fill-opacity:1;stroke-width:0.26458332"
         inkscape:connector-curvature="0"
         d="m 114.32838,266.00821 c -1.23242,-1.2327 -2.7887,-2.02274 -4.47675,-2.295 v -17.21485 c 2.2786,-0.58975 3.96875,-2.65721 3.96875,-5.11757 0,-2.46036 -1.69015,-4.52781 -3.96875,-5.11757 v -16.0491 c 0,-3.85048 -3.06228,-6.99717 -6.87917,-7.13713 v -3.03398 c 0,-4.0849 -3.323427,-7.40833 -7.408329,-7.40833 h -1.322916 v 1.32292 c 0,1.33932 -0.109803,2.65324 -0.317765,3.93488 H 91.7708 c 0.228071,-1.27847 0.353748,-2.59186 0.353748,-3.93488 v -16.4518 h -5.847556 v -2.23255 c 0,-9.10352 -7.406217,-16.51 -16.509736,-16.51 -9.103783,0 -16.509999,7.40622 -16.509999,16.51 v 2.23255 h -5.847292 v 16.4518 c 0,1.34302 0.125677,2.65641 0.353748,3.93488 h -2.15265 c -0.207962,-1.28138 -0.317765,-2.59556 -0.317765,-3.93488 v -1.32292 h -1.322916 c -4.084902,0 -7.408333,3.32343 -7.408333,7.40833 v 3.15198 c -3.30888,0.6223 -5.820838,3.53193 -5.820838,7.01887 v 16.0491 c -2.27859,0.58975 -3.96875,2.65721 -3.96875,5.11757 0,2.46036 1.69016,4.52781 3.96875,5.11757 v 17.21485 c -1.68804,0.27225 -3.24432,1.0623 -4.47675,2.29499 -1.54913,1.54914 -2.40241,3.60892 -2.40241,5.79967 0,2.19075 0.85328,4.25053 2.40241,5.79967 l 1.87087,-1.87087 c -1.0496,-1.04934 -1.62745,-2.44475 -1.62745,-3.9288 0,-1.48405 0.57785,-2.87946 1.62745,-3.9288 1.04934,-1.04934 2.44475,-1.62745 3.928801,-1.62745 1.484048,0 2.87946,0.57785 3.928798,1.62745 2.166408,2.16641 2.166408,5.69145 0,7.85786 l 1.870869,1.87087 c 3.197754,-3.19802 3.197754,-8.40158 0,-11.5996 -1.232694,-1.23269 -2.788973,-2.02274 -4.47675,-2.29499 V 246.4981 c 2.278591,-0.58976 3.96875,-2.65721 3.96875,-5.11757 0,-2.46036 -1.690159,-4.52782 -3.96875,-5.11757 v -16.04884 c 0,-2.01982 1.338527,-3.73247 3.175,-4.29868 v 11.44243 h 1.322916 c 3.063875,0 5.55625,2.49264 5.55625,5.55625 v 11.90625 h 4.497917 v 10.37405 c 0,2.45295 1.540404,4.55163 3.704166,5.38321 v 21.28441 H 47.80684 v 10.31875 h 17.991667 v -10.31875 h -3.836459 v -20.90208 h 15.610417 v 20.90208 h -3.836459 v 10.31875 h 17.991667 v -10.31875 h -3.836458 v -21.28441 c 2.163762,-0.83132 3.704166,-2.93026 3.704166,-5.38321 v -10.37405 h 4.497917 v -11.90625 c 0,-3.06361 2.492639,-5.55625 5.556252,-5.55625 h 1.32291 V 215.7297 c 2.35692,0.13811 4.23334,2.09365 4.23334,4.48442 v 16.0491 c -2.27859,0.58976 -3.96875,2.65721 -3.96875,5.11757 0,2.46036 1.69016,4.52782 3.96875,5.11757 v 17.21485 c -1.68804,0.27226 -3.24432,1.0623 -4.47675,2.295 -3.198021,3.19802 -3.198021,8.40158 0,11.59933 l 1.87061,-1.87087 c -2.16642,-2.16641 -2.16642,-5.69145 0,-7.85786 1.0496,-1.04934 2.44475,-1.62745 3.92906,-1.62745 1.48431,0 2.87946,0.57785 3.92906,1.62745 2.16641,2.16641 2.16641,5.69145 0,7.85786 l 1.8706,1.87087 c 3.19802,-3.19802 3.19802,-8.40158 0,-11.59933 z M 34.709965,241.38079 c 0,1.45891 -1.186921,2.64583 -2.645833,2.64583 -1.458911,0 -2.645831,-1.18692 -2.645831,-2.64583 0,-1.45891 1.18692,-2.64583 2.645831,-2.64583 1.458912,0 2.645833,1.18692 2.645833,2.64583 z m 35.057291,-69.97171 c 6.652155,0 12.222692,4.70985 13.557779,10.96963 H 56.209213 c 1.335087,-6.25978 6.906154,-10.96963 13.558043,-10.96963 z M 55.90309,185.27325 c 0,-0.0833 0.0048,-0.16563 0.0063,-0.24871 h 27.715633 c 0.0016,0.0831 0.0063,0.16537 0.0063,0.24871 v 2.23255 H 55.90299 Z m -5.847292,4.87839 h 39.422917 v 13.80596 c 0,4.58417 -1.577446,8.80427 -4.212167,12.15628 -3.157273,-5.51551 -9.037902,-8.98128 -15.499292,-8.98128 -6.461654,0 -12.342283,3.46577 -15.499556,8.98128 -2.63472,-3.35175 -4.211902,-7.57185 -4.211902,-12.15628 z m 7.805209,29.5021 c -0.596636,-0.45376 -1.164696,-0.94218 -1.705505,-1.45944 0.47969,-0.96044 1.052513,-1.85579 1.705505,-2.67679 z m 2.645833,-6.73735 c 0.823119,-0.63103 1.710267,-1.17528 2.645833,-1.62666 v 11.23421 c -0.914929,-0.32703 -1.798637,-0.71914 -2.645833,-1.17211 z m 5.291667,-2.6125 c 0.858308,-0.23151 1.743339,-0.38788 2.645833,-0.46619 v 13.78188 c -0.899054,-0.0601 -1.783292,-0.17516 -2.645833,-0.35216 z m 5.291666,-0.46593 c 0.902494,0.0783 1.787525,0.23469 2.645833,0.4662 v 12.96352 c -0.862541,0.17701 -1.746779,0.2921 -2.645833,0.35216 z m 5.291667,1.45177 c 0.935566,0.45138 1.822714,0.99563 2.645833,1.62666 v 8.43544 c -0.847196,0.4527 -1.730904,0.84508 -2.645833,1.17211 z m 5.291666,4.22804 c 0.652992,0.821 1.22555,1.71635 1.70524,2.67679 -0.540808,0.51726 -1.108604,1.00568 -1.70524,1.45918 z m -33.273735,-4.97946 c 2.816225,9.12601 11.329459,15.77658 21.36775,15.77658 10.038292,0 18.55126,-6.65057 21.36775,-15.77658 h 2.206625 c -2.881313,10.30896 -12.358158,17.89324 -23.574375,17.89324 -11.216216,0 -20.692798,-7.58428 -23.574375,-17.89324 z m 14.752902,73.96956 v 5.02709 h -12.7 v -5.02709 z m -8.863541,-2.64583 v -5.94942 c 0.744537,0.41751 1.600993,0.65775 2.513541,0.65775 0.912548,0 1.769004,-0.2405 2.513542,-0.65775 v 5.94942 z m 0,-10.45104 c 0,-1.38589 1.127654,-2.51354 2.513541,-2.51354 1.385888,0 2.513542,1.12765 2.513542,2.51354 0,1.38589 -1.127654,2.51354 -2.513542,2.51354 -1.385887,0 -2.513541,-1.12765 -2.513541,-2.51354 z m 5.027083,-4.50162 c -0.744538,-0.41751 -1.600994,-0.65776 -2.513542,-0.65776 -0.912548,0 -1.769004,0.24051 -2.513541,0.65776 v -5.94942 h 5.027083 z m 25.929166,0 c -0.744537,-0.41751 -1.600993,-0.65802 -2.513541,-0.65802 -0.912548,0 -1.769004,0.24051 -2.513542,0.65802 v -5.94942 h 5.027083 z m 0,4.50162 c 0,1.38589 -1.127654,2.51354 -2.513541,2.51354 -1.385888,0 -2.513542,-1.12765 -2.513542,-2.51354 0,-1.38589 1.127654,-2.51354 2.513542,-2.51354 1.385887,0 2.513541,1.12765 2.513541,2.51354 z m 3.836459,13.09687 v 5.02709 h -12.7 v -5.02709 z m -8.863542,-2.64583 v -5.94969 c 0.744538,0.41752 1.600994,0.65802 2.513542,0.65802 0.912548,0 1.769004,-0.2405 2.513541,-0.65802 v 5.94969 z m 8.73125,-26.66762 c 0,1.72006 -1.399381,3.1197 -3.119702,3.1197 H 77.572465 61.962048 53.704667 c -1.720056,0 -3.119702,-1.39964 -3.119702,-3.1197 v -10.37405 h 1.535377 c 0.654315,5.3602 5.233723,9.525 10.767748,9.525 h 13.758333 c 5.534025,0 10.113433,-4.1648 10.767483,-9.525 h 1.535642 z M 76.646423,251.69954 H 62.88809 c -4.522523,0 -8.202083,-3.6793 -8.202083,-8.20208 0,-4.52279 3.67956,-8.20209 8.202083,-8.20209 h 13.758333 c 4.522788,0 8.202083,3.6793 8.202083,8.20209 0,4.52278 -3.679295,8.20208 -8.202083,8.20208 z m 23.680207,-26.88087 c -3.895988,0.6342 -6.879165,4.02299 -6.879165,8.09545 v 9.26042 h -6.033559 c -0.654314,-5.36019 -5.233458,-9.525 -10.767483,-9.525 H 62.88809 c -5.534025,0 -10.113433,4.16481 -10.767748,9.525 h -6.033294 v -9.26042 c 0,-4.07246 -2.983177,-7.46125 -6.879166,-8.09545 v -14.77539 c 0,-2.18202 1.475052,-4.02617 3.480329,-4.58735 0.780521,14.25945 12.628033,25.62146 27.079045,25.62146 14.451013,0 26.298525,-11.36201 27.079046,-25.62146 2.005277,0.56118 3.480328,2.40533 3.480328,4.58735 z m 5.55625,16.56212 c 0,-1.45891 1.18693,-2.64583 2.64584,-2.64583 1.45891,0 2.64583,1.18692 2.64583,2.64583 0,1.45891 -1.18692,2.64583 -2.64583,2.64583 -1.45891,0 -2.64584,-1.18692 -2.64584,-2.64583 z"
         id="path5252" />
      <path
         style="stroke-width:0.26458332"
         inkscape:connector-curvature="0"
         d="m 51.510478,226.53767 c -2.480205,0 -4.497917,2.01771 -4.497917,4.49791 0,2.48021 2.017712,4.49792 4.497917,4.49792 2.480204,0 4.497916,-2.01771 4.497916,-4.49792 0,-2.4802 -2.017712,-4.49791 -4.497916,-4.49791 z m 0,6.35 c -1.021292,0 -1.852084,-0.8308 -1.852084,-1.85209 0,-1.02129 0.830792,-1.85208 1.852084,-1.85208 1.021291,0 1.852083,0.83079 1.852083,1.85208 0,1.02129 -0.830792,1.85209 -1.852083,1.85209 z"
         id="path5254" />
      <path
         style="stroke-width:0.26458332"
         inkscape:connector-curvature="0"
         d="m 88.024035,226.53767 c -2.480204,0 -4.497916,2.01771 -4.497916,4.49791 0,2.48021 2.017712,4.49792 4.497916,4.49792 2.480205,0 4.497917,-2.01771 4.497917,-4.49792 0,-2.4802 -2.017712,-4.49791 -4.497917,-4.49791 z m 0,6.35 c -1.021027,0 -1.852083,-0.8308 -1.852083,-1.85209 0,-1.02129 0.831056,-1.85208 1.852083,-1.85208 1.021027,0 1.852084,0.83079 1.852084,1.85208 0,1.02129 -0.830792,1.85209 -1.852084,1.85209 z"
         id="path5256" />
    </g>
    <g
       id="g1309"
       transform="translate(288.85294,-12.837908)">
      <path
         inkscape:connector-curvature="0"
         style="fill:#ced4d4;fill-opacity:1;stroke-width:0.45791471"
         d="m 23.654438,204.60937 c -4.407887,0 -8.014424,3.60653 -8.014424,8.01442 v 72.12844 c -2.40451,0 -4.007211,1.6027 -4.007211,4.00721 0,2.40451 1.602701,4.00721 4.007211,4.00721 H 27.66165 c 2.40451,0 4.007211,-1.6027 4.007211,-4.00721 0,-2.40451 -1.602701,-4.00721 -4.007211,-4.00721 l 4.007211,-80.14286 c 0,0 -8.014423,0 -8.014423,0 z m 96.171712,80.14286 v -72.12844 c 0,-4.40789 -3.60654,-8.01442 -8.01442,-8.01442 h -8.01443 l 4.00767,80.14286 c -2.40451,0 -4.00721,1.6027 -4.00721,4.00721 0,2.40451 1.6027,4.00721 4.00721,4.00721 h 12.02164 c 2.40451,0 4.00721,-1.6027 4.00721,-4.00721 0,-2.40451 -1.60362,-4.00721 -4.00767,-4.00721 z"
         id="path5322" />
      <path
         id="path5324"
         d="m 31.668403,288.75944 c 0,-2.40451 -1.602701,-4.00721 -4.007211,-4.00721 l 4.007211,-80.14286 h -8.013965 v 80.14286 l 4.007212,8.01442 c 2.404052,0 4.006753,-1.6027 4.006753,-4.00721 z m 80.143327,-84.15007 h -8.01443 l 4.00767,80.14286 c -2.40451,0 -4.00721,1.6027 -4.00721,4.00721 0,2.40451 1.6027,4.00721 4.00721,4.00721 l 4.00721,-8.01442 v -80.14286 z"
         style="fill:#b3afaf;fill-opacity:1;stroke-width:0.45791471"
         inkscape:connector-curvature="0" />
      <path
         inkscape:connector-curvature="0"
         style="fill:#324d5b;stroke-width:0.45791471"
         d="m 39.682827,276.73826 h 56.100048 l -8.014423,8.01397 H 47.69725 Z"
         id="path5328" />
      <path
         inkscape:connector-curvature="0"
         style="fill:#ced4d4;fill-opacity:1;stroke:#e4e7e7;stroke-width:0.45791471;stroke-opacity:1"
         d="m 67.733309,165.74019 c 22.039435,0 39.670531,17.63155 39.670531,39.67053 v 71.72776 H 28.062325 v -71.72776 c 0,-22.03898 17.63109,-39.67053 39.670984,-39.67053 z"
         id="path5330" />
      <path
         inkscape:connector-curvature="0"
         style="fill:#324d5b;stroke-width:0.45791471"
         d="m 67.733309,176.55934 c 4.407887,0 8.014423,3.60654 8.014423,8.01442 0,4.40789 -3.606536,8.01443 -8.014423,8.01443 -4.407887,0 -8.014424,-3.60654 -8.014424,-8.01443 0,-4.40788 3.606079,-8.01442 8.014424,-8.01442 z"
         id="path5332" />
      <path
         inkscape:connector-curvature="0"
         style="fill:#ff3636;fill-opacity:1;stroke-width:0.45791471"
         d="m 28.062325,204.60937 v 8.01442 h 79.341515 v -8.01442 z m 19.634925,28.05002 h 40.071659 v -8.01442 H 47.69725 Z m 0,16.02885 h 40.071659 v -8.01443 H 47.69725 Z m 0,16.02839 H 87.768909 V 256.7022 H 47.69725 Z"
         id="path5334" />
    </g>
    <g
       id="g5484">
      <g
         id="g5495">
        <g
           id="g5555"
           transform="translate(0,-1.5053328)">
          <g
             id="g1337"
             transform="translate(0,-8.4666671)">
            <g
               id="g1330">
              <circle
                 style="opacity:1;fill:#000000;fill-opacity:1;stroke:none;stroke-width:8.46666622;stroke-linecap:round;stroke-linejoin:miter;stroke-miterlimit:4;stroke-dasharray:none;stroke-dashoffset:0;stroke-opacity:1"
                 id="path1313"
                 cx="41.275005"
                 cy="222.70981"
                 r="12.7" />
              <circle
                 r="18.679853"
                 cy="222.70982"
                 cx="94.191666"
                 id="circle1315"
                 style="opacity:1;fill:#000000;fill-opacity:1;stroke:none;stroke-width:8.46666622;stroke-linecap:round;stroke-linejoin:miter;stroke-miterlimit:4;stroke-dasharray:none;stroke-dashoffset:0;stroke-opacity:1" />
              <rect
                 style="opacity:1;fill:none;fill-opacity:1;stroke:#000000;stroke-width:12.69999981;stroke-linecap:round;stroke-linejoin:miter;stroke-miterlimit:4;stroke-dasharray:none;stroke-dashoffset:0;stroke-opacity:1"
                 id="rect1311"
                 width="122.76667"
                 height="73.506058"
                 x="6.3499999"
                 y="185.95699"
                 ry="36.753029" />
            </g>
            <path
               style="fill:#000000;fill-opacity:1;fill-rule:evenodd;stroke:#000000;stroke-width:7.9375;stroke-linecap:butt;stroke-linejoin:round;stroke-miterlimit:4;stroke-dasharray:none;stroke-opacity:1"
               d="m 38.643278,274.36808 v 20.16866 l 28.095928,-10.08433 28.095927,10.08433 v -20.16866 l -28.095927,10.08433 z"
               id="path5481"
               inkscape:connector-curvature="0"
               sodipodi:nodetypes="ccccccc" />
          </g>
        </g>
      </g>
    </g>
  </g>
</svg>
